<?xml version="1.0" encoding="UTF-8" standalone="no"?>
<!-- Created with Inkscape (http://www.inkscape.org/) -->

<svg
   xmlns:dc="http://purl.org/dc/elements/1.1/"
   xmlns:cc="http://creativecommons.org/ns#"
   xmlns:rdf="http://www.w3.org/1999/02/22-rdf-syntax-ns#"
   xmlns:svg="http://www.w3.org/2000/svg"
   xmlns="http://www.w3.org/2000/svg"
   version="1.1"
   width="512"
   height="512"
   id="svg2"
   xml:space="preserve"><metadata
     id="metadata8"><rdf:RDF><cc:Work
         rdf:about=""><dc:format>image/svg+xml</dc:format><dc:type
           rdf:resource="http://purl.org/dc/dcmitype/StillImage" /><dc:title></dc:title></cc:Work></rdf:RDF></metadata><defs
     id="defs6"><clipPath
       id="clipPath16"><path
         d="M 0,792 612,792 612,0 0,0 0,792 z"
         id="path18" /></clipPath></defs><g
     transform="matrix(1.25,0,0,-1.25,0,512)"
     id="g10"><g
       transform="matrix(6.0924126,0,0,6.0924126,634.18746,-3837.9229)"
       id="g3558"><g
         transform="translate(-59.278006,653.54568)"
         id="g28"><path
           d="m 0,0 c -4.467,0 -8.088,2.356 -8.088,5.264 0,2.907 3.621,5.263 8.088,5.263 4.467,0 10.912,-3.465 10.912,-5.135 C 10.912,3.724 4.467,0 0,0 m -24,-3 c -4.467,0 -8.088,2.357 -8.088,5.264 0,2.907 3.621,5.263 8.088,5.263 4.467,0 10.912,-3.465 10.912,-5.135 C -13.088,0.724 -19.533,-3 -24,-3 m 8.5,24.764 c 4.467,0 10.912,-3.466 10.912,-5.136 0,-1.668 -6.445,-5.391 -10.912,-5.391 -4.467,0 -8.088,2.356 -8.088,5.263 0,2.907 3.621,5.264 8.088,5.264 m 33.166,18.056 -56.803,0 c -0.994,0 -1.8,-0.805 -1.8,-1.799 l 0,-56.803 c 0,-0.994 0.806,-1.8 1.8,-1.8 l 56.803,0 c 0.994,0 1.8,0.806 1.8,1.8 l 0,56.803 c 0,0.994 -0.806,1.799 -1.8,1.799"
           id="path30"
           style="fill:#b18c54;fill-opacity:1;fill-rule:nonzero;stroke:none" /></g></g><g
       transform="translate(5.2634937,882.87968)"
       id="g56"><path
         d="m 0,0 c -1.08,0 -1.955,-0.875 -1.955,-1.955 0,-1.08 0.875,-1.955 1.955,-1.955 1.078,0 1.953,0.875 1.953,1.955 C 1.953,-0.875 1.078,0 0,0"
         id="path58"
         style="fill:#984b3b;fill-opacity:1;fill-rule:nonzero;stroke:none" /></g><g
       transform="translate(-130.68421,675.52708)"
       id="g156"><path
         d="m 0,0 -2.256,-2.257 c -0.284,-0.284 -0.744,-0.284 -1.028,0 l -1.971,1.971 c -0.284,0.284 -0.284,0.744 0,1.028 l 2.256,2.256 c 0.284,0.283 0.744,0.283 1.028,0 L 0,1.027 C 0.284,0.743 0.284,0.283 0,0 m -2.427,-5.998 -2.257,-2.256 c -0.284,-0.284 -0.744,-0.284 -1.028,0 l -1.971,1.971 c -0.284,0.283 -0.284,0.743 0,1.027 L -5.426,-3 c 0.283,0.284 0.744,0.284 1.028,0 l 1.97,-1.971 c 0.284,-0.283 0.284,-0.744 10e-4,-1.027 m -4.391,-28.72 -5,12 c 0,0 -13.658,-11.468 -19.798,-12.182 -4.358,-0.506 -11.073,6.209 -10.566,10.566 0.714,6.141 11.364,19.116 11.364,19.116 l -9,4.5 13.343,2.374 3.142,-2.571 -3.682,-8.536 1.597,1.597 c 0.284,0.284 0.744,0.284 1.028,0 l 1.971,-1.971 c 0.284,-0.284 0.284,-0.745 0,-1.029 l -2.256,-2.255 c -0.284,-0.285 -0.744,-0.285 -1.029,0 l -1.97,1.97 c -0.017,0.018 -0.03,0.037 -0.045,0.055 l -0.519,-1.205 1.677,-1.678 c 0.285,-0.283 0.285,-0.744 0.001,-1.027 l -2.256,-2.257 c -0.285,-0.284 -0.745,-0.284 -1.029,0 l -0.373,0.373 -0.516,-1.196 0.032,-0.033 c 0.285,-0.285 0.285,-0.745 0.001,-1.029 l -0.862,-0.861 -1.688,-3.915 c 0.08,-0.035 0.156,-0.084 0.222,-0.151 l 1.885,-1.884 1.325,0.57 c -0.14,0.026 -0.274,0.092 -0.383,0.201 l -1.97,1.971 c -0.285,0.283 -0.285,0.744 0,1.027 l 2.256,2.257 c 0.284,0.284 0.744,0.284 1.028,0 l 1.971,-1.971 c 0.284,-0.284 0.284,-0.744 0,-1.028 l -2.12,-2.119 2.762,1.191 0.143,0.143 c 0.177,0.177 0.423,0.244 0.652,0.199 l 1.32,0.57 -0.088,0.088 c -0.283,0.284 -0.283,0.744 0.001,1.028 l 2.256,2.256 c 0.284,0.284 0.744,0.284 1.028,0 l 1.393,-1.393 1.197,0.518 -1.733,1.732 c -0.284,0.283 -0.284,0.744 0,1.027 l 2.256,2.257 c 0.284,0.284 0.745,0.284 1.028,0 l 1.971,-1.971 c 0.284,-0.284 0.284,-0.744 0,-1.028 l -0.878,-0.878 7.532,3.249 2.571,-3.141 -1.192,-15.526 z m -13.431,31.005 1.971,-1.971 c 0.284,-0.285 0.284,-0.744 0,-1.028 l -2.256,-2.257 c -0.284,-0.283 -0.744,-0.283 -1.029,0 l -1.97,1.971 c -0.284,0.284 -0.284,0.744 0,1.028 l 2.256,2.256 c 0.284,0.284 0.744,0.284 1.028,10e-4 m 0.857,1.885 2.256,2.256 c 0.284,0.284 0.744,0.284 1.028,0 l 1.971,-1.971 c 0.284,-0.283 0.284,-0.744 0,-1.028 l -2.256,-2.257 c -0.284,-0.283 -0.744,-0.283 -1.028,0 l -1.971,1.972 c -0.284,0.283 -0.284,0.744 0,1.028 m 4.141,4.141 2.256,2.255 c 0.284,0.285 0.745,0.285 1.028,0 l 1.971,-1.97 c 0.284,-0.284 0.284,-0.744 0,-1.028 l -2.256,-2.256 c -0.284,-0.285 -0.744,-0.285 -1.028,0 l -1.971,1.971 c -0.284,0.283 -0.284,0.743 0,1.028 m 5.755,-6.784 -1.971,1.971 c -0.283,0.284 -0.283,0.744 0,1.028 l 2.257,2.257 c 0.283,0.283 0.744,0.283 1.027,0 l 1.971,-1.971 c 0.284,-0.285 0.284,-0.744 10e-4,-1.028 l -2.257,-2.257 c -0.284,-0.283 -0.744,-0.283 -1.028,0 m -2.328,-5.954 c -0.284,0.284 -0.284,0.744 0,1.029 l 2.257,2.255 c 0.283,0.285 0.744,0.285 1.027,0 l 1.971,-1.97 c 0.284,-0.284 0.284,-0.744 0.001,-1.028 l -2.257,-2.257 c -0.284,-0.284 -0.744,-0.284 -1.028,0 l -1.971,1.971 z m -4.141,-3.113 2.257,2.257 c 0.283,0.283 0.744,0.283 1.027,0 l 1.971,-1.971 c 0.284,-0.285 0.284,-0.744 0,-1.028 l -2.256,-2.257 c -0.284,-0.283 -0.744,-0.283 -1.028,0 l -1.971,1.971 c -0.284,0.285 -0.284,0.744 0,1.028 m 0.357,7.926 2.256,2.256 c 0.284,0.284 0.745,0.284 1.028,0 l 1.971,-1.971 c 0.284,-0.284 0.284,-0.745 0,-1.028 l -2.256,-2.256 c -0.284,-0.285 -0.745,-0.285 -1.028,0 l -1.971,1.97 c -0.284,0.284 -0.284,0.745 0,1.029 m -4.141,-5.169 c -0.284,0.283 -0.284,0.743 0,1.027 l 2.256,2.256 c 0.284,0.284 0.744,0.284 1.028,0 l 1.971,-1.971 c 0.284,-0.283 0.284,-0.744 0,-1.027 l -2.256,-2.257 c -0.284,-0.283 -0.744,-0.283 -1.028,10e-4 l -1.971,1.971 z m -3.027,-7.997 -2.256,-2.257 c -0.284,-0.283 -0.745,-0.283 -1.029,0 l -1.97,1.971 c -0.284,0.284 -0.284,0.744 0,1.028 l 2.256,2.257 c 0.284,0.283 0.744,0.283 1.028,0 l 1.971,-1.971 c 0.284,-0.285 0.284,-0.744 0,-1.028 m -1.114,3.855 c -0.284,0.284 -0.284,0.743 0,1.028 l 2.256,2.256 c 0.284,0.285 0.744,0.284 1.028,0 l 1.971,-1.97 c 0.284,-0.285 0.284,-0.745 0,-1.029 l -2.256,-2.257 c -0.284,-0.283 -0.744,-0.283 -1.028,0 l -1.971,1.972 z m 14.851,19.448 2.256,2.257 c 0.284,0.284 0.744,0.284 1.028,0 l 1.971,-1.97 C -3.5,4.527 -3.5,4.067 -3.784,3.783 L -6.041,1.527 c -0.283,-0.284 -0.744,-0.283 -1.027,0 l -1.971,1.971 c -0.284,0.284 -0.284,0.744 0,1.027 m 15.051,13.314 -56.803,0 c -0.994,0 -1.8,-0.806 -1.8,-1.8 l 0,-56.803 c 0,-0.994 0.806,-1.799 1.8,-1.799 l 56.803,0 c 0.994,0 1.8,0.805 1.8,1.799 l 0,56.803 c 0,0.994 -0.806,1.8 -1.8,1.8"
         id="path158"
         style="fill:#d79f54;fill-opacity:1;fill-rule:nonzero;stroke:none" /></g></g></svg>